<?xml version="1.0" standalone="no"?>
<!DOCTYPE svg PUBLIC "-//W3C//DTD SVG 20010904//EN"
 "http://www.w3.org/TR/2001/REC-SVG-20010904/DTD/svg10.dtd">
<svg version="1.0" xmlns="http://www.w3.org/2000/svg"
 width="260.000000pt" height="260.000000pt" viewBox="0 0 260.000000 260.000000"
 preserveAspectRatio="xMidYMid meet">
<metadata>
Created by potrace 1.14, written by Peter Selinger 2001-2017
</metadata>
<g transform="translate(0.000000,260.000000) scale(0.100000,-0.100000)"
fill="#000000" stroke="none">
<path d="M70 2578 c-74 -50 -68 54 -69 -1273 -1 -1114 0 -1192 17 -1224 9 -19
30 -44 45 -55 28 -21 33 -21 1230 -24 l1201 -2 38 25 c73 49 68 -50 65 1284
-2 1196 -2 1200 -23 1228 -11 15 -36 36 -55 45 -32 17 -111 18 -1225 18
l-1191 0 -33 -22z"/>
</g>
</svg>
